<?xml version="1.0" encoding="UTF-8"?>
<svg width="200" height="200" viewBox="0 0 200 200" fill="none" xmlns="http://www.w3.org/2000/svg">
  <rect width="200" height="200" fill="white"/>
  
  <!-- Placeholder Box -->
  <rect x="40" y="40" width="120" height="120" rx="8" fill="#F5F5F5" stroke="#E2E8F0" stroke-width="2"/>
  
  <!-- Icon -->
  <path d="M100 70C91.716 70 85 76.716 85 85C85 93.284 91.716 100 100 100C108.284 100 115 93.284 115 85C115 76.716 108.284 70 100 70ZM100 95C94.486 95 90 90.514 90 85C90 79.486 94.486 75 100 75C105.514 75 110 79.486 110 85C110 90.514 105.514 95 100 95Z" fill="#CBD5E0"/>
  <path d="M135 130H65V125L85 105L95 115L120 90L135 105V130Z" fill="#CBD5E0"/>
  
  <!-- Text -->
  <text x="100" y="150" font-family="Arial" font-size="14" font-weight="bold" text-anchor="middle" fill="#718096">Product Image</text>
</svg>
